<?xml version="1.0" encoding="utf-8"?>
<svg width="384px" height="138px" viewBox="0 0 384 138" version="1.1" xmlns:xlink="http://www.w3.org/1999/xlink" xmlns="http://www.w3.org/2000/svg">
  <g id="Group">
    <path d="M180.423 44.4501C166.928 41.3802 157.206 32.8739 157.206 22.8326C157.206 21.5535 157.334 20.3383 157.654 19.1871C164.242 17.3963 181.446 14.7741 184.58 16.8207C186.691 18.0359 182.661 34.4089 180.423 44.4501" id="Shape" fill="#3D85C6" fill-rule="evenodd" stroke="none" />
    <path d="M225.193 19.1871C225.513 20.4023 225.641 21.6175 225.641 22.8326C225.641 32.8739 215.855 41.3802 202.36 44.4501C200.122 34.4728 196.092 18.0359 198.203 16.8207C201.337 14.7741 218.669 17.3963 225.193 19.1871" id="Shape" fill="#3D85C6" fill-rule="evenodd" stroke="none" />
    <path d="M191.424 0C206.198 0 218.797 6.26779 223.594 15.0299C218.094 14.1985 192.575 8.05859 192.895 13.1112L192.895 45.6014C192.383 45.6014 191.935 45.6014 191.424 45.6014C190.912 45.6014 190.4 45.6014 189.889 45.6014L189.889 13.1112C190.144 8.05859 164.817 14.1345 159.253 15.0299C164.05 6.33174 176.649 0 191.424 0" id="Shape" fill="#3D85C6" fill-rule="evenodd" stroke="none" />
    <path d="M121.838 136.356C120.879 136.868 118.704 137.38 115.954 137.38C108.727 137.38 104.378 132.839 104.378 125.931C104.378 118.448 109.558 113.907 116.53 113.907C119.28 113.907 121.199 114.483 122.03 114.931L121.135 118.257C120.047 117.809 118.576 117.361 116.658 117.361C112.053 117.361 108.727 120.239 108.727 125.74C108.727 130.728 111.669 133.926 116.658 133.926C118.321 133.926 120.111 133.606 121.199 133.095L121.838 136.356L121.838 136.356Z" id="Shape" fill="#3D85C6" fill-rule="evenodd" stroke="none" />
    <path d="M144.671 125.42C144.671 133.031 140.066 137.38 133.798 137.38C127.402 137.38 123.373 132.519 123.373 125.803C123.373 118.832 127.786 113.907 134.182 113.907C140.706 113.907 144.671 118.96 144.671 125.42M127.658 125.803C127.658 130.408 129.961 134.118 133.99 134.118C138.019 134.118 140.258 130.344 140.258 125.612C140.258 121.326 138.147 117.233 133.99 117.233C129.897 117.233 127.658 121.071 127.658 125.803" id="Shape" fill="#3D85C6" fill-rule="evenodd" stroke="none" />
    <path d="M167.376 127.786C167.248 124.844 167.056 121.327 167.12 118.193L166.992 118.193C166.224 121.007 165.329 124.077 164.306 126.891L160.98 136.74L157.782 136.74L154.776 127.019C153.881 124.141 153.113 121.007 152.474 118.129L152.41 118.129C152.282 121.135 152.154 124.716 152.026 127.85L151.514 136.996L147.613 136.996L149.148 114.291L154.584 114.291L157.526 123.437C158.358 126.123 159.061 128.81 159.637 131.304L159.765 131.304C160.34 128.873 161.172 126.059 162.003 123.373L165.137 114.291L170.509 114.291L171.853 136.996L167.823 136.996L167.376 127.786L167.376 127.786Z" id="Shape" fill="#3D85C6" fill-rule="evenodd" stroke="none" />
    <path d="M195.261 127.786C195.133 124.844 194.941 121.327 195.005 118.193L194.877 118.193C194.11 121.007 193.214 124.077 192.191 126.891L188.865 136.74L185.667 136.74L182.661 127.019C181.766 124.141 180.999 121.007 180.359 118.129L180.295 118.129C180.167 121.135 180.039 124.716 179.911 127.85L179.4 136.996L175.498 136.996L177.033 114.291L182.469 114.291L185.412 123.437C186.243 126.123 186.947 128.81 187.522 131.304L187.65 131.304C188.226 128.873 189.057 126.059 189.889 123.373L193.022 114.291L198.395 114.291L199.738 136.996L195.709 136.996L195.261 127.786L195.261 127.786Z" id="Shape" fill="#3D85C6" fill-rule="evenodd" stroke="none" />
    <path d="M208.052 114.291L208.052 127.53C208.052 132.007 209.907 134.054 212.721 134.054C215.727 134.054 217.518 132.007 217.518 127.53L217.518 114.291L221.675 114.291L221.675 127.275C221.675 134.31 218.094 137.38 212.593 137.38C207.349 137.38 203.959 134.438 203.959 127.275L203.959 114.291L208.052 114.291L208.052 114.291Z" id="Shape" fill="#3D85C6" fill-rule="evenodd" stroke="none" />
    <path d="M226.408 137.06L226.408 114.291L231.141 114.291L237.025 124.013C238.56 126.571 239.839 129.193 240.926 131.624L240.99 131.624C240.734 128.618 240.607 125.676 240.607 122.158L240.607 114.291L244.444 114.291L244.444 136.996L240.159 136.996L234.211 126.955C232.74 124.524 231.269 121.71 230.118 119.152L229.99 119.216C230.182 122.158 230.182 125.164 230.182 128.873L230.182 136.996L226.408 136.996L226.408 137.06Z" id="Shape" fill="#3D85C6" fill-rule="evenodd" stroke="none" />
    <path d="M249.177 114.291L253.334 114.291L253.334 136.996L249.177 136.996L249.177 114.291Z" id="Rectangle" fill="#3D85C6" fill-rule="evenodd" stroke="none" />
    <path d="M274.376 136.356C273.416 136.868 271.242 137.38 268.492 137.38C261.265 137.38 256.915 132.839 256.915 125.931C256.915 118.448 262.096 113.907 269.067 113.907C271.817 113.907 273.736 114.483 274.568 114.931L273.672 118.257C272.585 117.809 271.114 117.361 269.195 117.361C264.59 117.361 261.265 120.239 261.265 125.74C261.265 130.728 264.207 133.926 269.195 133.926C270.858 133.926 272.649 133.606 273.736 133.095L274.376 136.356L274.376 136.356Z" id="Shape" fill="#3D85C6" fill-rule="evenodd" stroke="none" />
    <path d="M282.69 130.6L280.707 137.06L276.422 137.06L283.777 114.291L289.086 114.291L296.441 136.996L291.964 136.996L289.917 130.536L282.69 130.536L282.69 130.6ZM289.214 127.466L287.423 121.902C286.975 120.495 286.592 118.96 286.272 117.681L286.208 117.681C285.888 119.024 285.568 120.559 285.121 121.902L283.394 127.466L289.214 127.466L289.214 127.466Z" id="Shape" fill="#3D85C6" fill-rule="evenodd" stroke="none" />
    <path d="M301.238 117.809L294.714 117.809L294.714 114.291L311.919 114.291L311.919 117.809L305.331 117.809L305.331 137.06L301.238 137.06L301.238 117.809Z" id="Polygon" fill="#3D85C6" fill-rule="evenodd" stroke="none" />
    <path d="M314.541 114.291L318.698 114.291L318.698 136.996L314.541 136.996L314.541 114.291Z" id="Rectangle" fill="#3D85C6" fill-rule="evenodd" stroke="none" />
    <path d="M343.641 125.42C343.641 133.031 339.036 137.38 332.768 137.38C326.373 137.38 322.344 132.519 322.344 125.803C322.344 118.832 326.693 113.907 333.152 113.907C339.676 113.907 343.641 118.96 343.641 125.42M326.629 125.803C326.629 130.408 328.931 134.118 332.96 134.118C336.99 134.118 339.228 130.344 339.228 125.612C339.228 121.326 337.118 117.233 332.96 117.233C328.867 117.233 326.629 121.071 326.629 125.803" id="Shape" fill="#3D85C6" fill-rule="evenodd" stroke="none" />
    <path d="M347.159 137.06L347.159 114.291L351.892 114.291L357.776 124.013C359.311 126.571 360.59 129.193 361.677 131.624L361.741 131.624C361.485 128.618 361.357 125.676 361.357 122.158L361.357 114.291L365.195 114.291L365.195 136.996L360.91 136.996L354.962 126.955C353.491 124.524 352.02 121.71 350.868 119.152L350.74 119.216C350.932 122.158 350.932 125.164 350.932 128.873L350.932 136.996L347.159 136.996L347.159 137.06Z" id="Shape" fill="#3D85C6" fill-rule="evenodd" stroke="none" />
    <path d="M369.864 132.519C371.207 133.286 373.253 133.99 375.364 133.99C378.05 133.99 379.521 132.775 379.521 130.856C379.521 129.129 378.37 128.106 375.492 127.083C371.718 125.74 369.352 123.757 369.352 120.495C369.352 116.786 372.422 113.971 377.347 113.971C379.777 113.971 381.632 114.483 382.783 115.123L381.76 118.448C380.928 118.001 379.393 117.361 377.219 117.361C374.597 117.361 373.445 118.768 373.445 120.111C373.445 121.838 374.788 122.67 377.794 123.821C381.76 125.292 383.678 127.274 383.678 130.536C383.678 134.182 380.928 137.38 375.044 137.38C372.678 137.38 370.184 136.676 368.904 135.909L369.864 132.519L369.864 132.519Z" id="Shape" fill="#3D85C6" fill-rule="evenodd" stroke="none" />
    <path d="M6.45966 136.932L6.45966 120.879L0 120.879L0 114.163L22.0652 114.163L22.0652 120.879L15.7334 120.879L15.7334 136.932L6.45966 136.932Z" id="Polygon" fill="#3D85C6" fill-rule="evenodd" stroke="none" />
    <path d="M50.4621 136.932L50.4621 120.879L44.0025 120.879L44.0025 114.163L66.0676 114.163L66.0676 120.879L59.7359 120.879L59.7359 136.932L50.4621 136.932Z" id="Polygon" fill="#3D85C6" fill-rule="evenodd" stroke="none" />
    <path d="M19.9546 136.996L28.269 114.163L37.7986 114.163L46.6247 136.996L37.6707 136.996L33.0658 123.181L28.4609 136.996L19.9546 136.996Z" id="Polygon" fill="#3D85C6" fill-rule="evenodd" stroke="none" />
    <path d="M63.9571 136.932L72.2715 114.163L81.6732 114.163L90.6272 136.932L81.6732 136.932L77.1962 123.181L72.4634 136.932L63.9571 136.932Z" id="Polygon" fill="#3D85C6" fill-rule="evenodd" stroke="none" />
  </g>
</svg>